<svg xmlns="http://www.w3.org/2000/svg" viewBox="0 0 20 20" enable-background="new 0 0 20 20"><path d="M14.608 12.172c0 .84.24 1.175.864 1.175 1.393 0 2.28-1.775 2.28-4.727 0-4.512-3.288-6.672-7.393-6.672-4.224 0-8.065 2.832-8.065 8.184 0 5.112 3.36 7.896 8.52 7.896 1.752 0 2.928-.192 4.727-.792l.386 1.607c-1.776.577-3.674.744-5.137.744C4.024 19.587.4 15.867.4 10.13c0-5.783 4.2-9.72 9.985-9.72 6.024 0 9.215 3.6 9.215 8.017 0 3.744-1.175 6.6-4.87 6.6-1.682 0-2.785-.672-2.93-2.16-.43 1.655-1.583 2.16-3.144 2.16-2.088 0-3.84-1.61-3.84-4.848 0-3.265 1.537-5.28 4.297-5.28 1.465 0 2.377.575 2.783 1.487l.697-1.272h2.016v7.057h.002zm-2.95-3.168c0-1.32-.986-1.872-1.802-1.872-.888 0-1.87.72-1.87 2.832 0 1.68.743 2.616 1.87 2.616.792 0 1.8-.504 1.8-1.896v-1.68z"/></svg>