<svg xmlns="http://www.w3.org/2000/svg" viewBox="0 0 20 20" enable-background="new 0 0 20 20"><path d="M13.18 11.31c-.718 0-1.3.806-1.3 1.798 0 .994.582 1.8 1.3 1.8s1.3-.806 1.3-1.8c0-.992-.582-1.8-1.3-1.8zm4.526-4.684c.15-.365.155-2.44-.635-4.426 0 0-1.81.2-4.55 2.08-.575-.16-1.548-.238-2.52-.238s-1.944.078-2.52.238C4.74 2.4 2.93 2.2 2.93 2.2c-.79 1.987-.782 4.06-.635 4.426C1.367 7.634.8 8.846.8 10.496c0 7.187 5.963 7.302 7.467 7.302L10 17.8l1.733-.002c1.506 0 7.467-.115 7.467-7.3 0-1.653-.566-2.864-1.494-3.872zm-7.678 10.29h-.056c-3.77 0-6.71-.45-6.71-4.116 0-.88.31-1.693 1.048-2.37 1.227-1.126 3.305-.53 5.662-.53H10.028c2.357 0 4.436-.596 5.664.53.735.677 1.045 1.49 1.045 2.37 0 3.666-2.937 4.115-6.71 4.115zM6.82 11.308c-.717 0-1.3.806-1.3 1.798 0 .994.583 1.8 1.3 1.8.72 0 1.302-.806 1.302-1.8 0-.992-.582-1.8-1.3-1.8z"/></svg>