<svg width="330" height="300" xmlns="http://www.w3.org/2000/svg"><path d="M319.461 18.783c28.894-31.284-35.646-22.541-100.306 47.466-26.347 28.511-24.394 59.782-37.731 74.23a3599.972 3599.972 0 0 0-10.287 8.877 6306.94 6306.94 0 0 0-51.04-46.367 19.714 19.714 0 0 1 .082-4.58s5.951-19.931-18.901-40.683L32.051 0l-5.886 5.886 67.812 67.812a4.306 4.306 0 0 1-.012 6.105 4.308 4.308 0 0 1-6.09 0l.005.003-67.818-67.817-9.089 9.089 67.81 67.812a4.31 4.31 0 0 1-.007 6.101 4.307 4.307 0 0 1-6.093.008L4.868 27.182 2.49 29.561l-3.501 3.501 57.729 69.222c20.745 24.855 40.676 18.898 40.676 18.898a19.929 19.929 0 0 1 4.553-.083 6294.486 6294.486 0 0 0 44.956 49.501c-29.732 26.395-66.385 60.254-95.383 91.645-9.446 10.221-11.238 26.363-2.512 34.434 8.729 8.07 24.104 5.615 34.123-5.23 28.459-30.811 58.702-69.16 82.466-100.57 28.849 31.144 62.839 67.147 93.458 97.768 12.112 12.113 28.534 15.744 36.42 7.857 7.896-7.899 3.559-25.017-7.861-36.438-31.812-31.812-69.449-67.272-101.402-96.817.255-.345.515-.695.766-1.037 71.281-77.178 89.388-96.777 132.483-143.429z"/></svg>