<svg width="330" height="300" xmlns="http://www.w3.org/2000/svg"><path d="M319.46 18.783C348.356-12.5 283.816-3.757 219.156 66.25c-26.347 28.51-24.394 59.78-37.73 74.23-3.136 2.694-6.58 5.664-10.288 8.876-23.787-21.845-42.747-38.92-51.04-46.367-.138-1.405-.14-2.92.082-4.58 0 0 5.95-19.932-18.902-40.684L32.05 0l-5.885 5.886 67.812 67.812c1.688 1.695 1.684 4.412-.012 6.105-1.678 1.677-4.404 1.685-6.09 0l.005.003L20.062 11.99l-9.09 9.088 67.81 67.812c1.69 1.694 1.68 4.415-.006 6.1-1.685 1.686-4.407 1.69-6.093.01L4.868 27.18l-2.378 2.38-3.5 3.5 57.728 69.222c20.745 24.855 40.676 18.898 40.676 18.898 1.648-.218 3.156-.217 4.553-.083 7.286 8.11 23.785 26.433 44.956 49.5-29.732 26.395-66.385 60.254-95.383 91.645-9.446 10.22-11.238 26.363-2.512 34.434 8.73 8.07 24.104 5.614 34.123-5.23 28.46-30.812 58.703-69.16 82.467-100.57 28.85 31.143 62.84 67.146 93.458 97.767 12.112 12.113 28.534 15.744 36.42 7.857 7.896-7.9 3.56-25.017-7.86-36.438-31.813-31.812-69.45-67.272-101.403-96.817.255-.346.515-.696.766-1.038 71.28-77.178 89.388-96.777 132.483-143.43z"/></svg>