<svg xmlns="http://www.w3.org/2000/svg" width="206.784mm" height="42.01mm" viewBox="0 0 732.69931 148.85297"><g><path d="M158.313 9.28c14.273-15.455-17.61-11.136-49.55 23.447C95.745 46.81 96.71 62.26 90.122 69.397c-1.55 1.33-3.25 2.798-5.082 4.385C73.29 62.99 63.925 54.556 59.828 50.877c-.068-.694-.07-1.442.04-2.263 0 0 2.94-9.846-9.337-20.097L16.332 0l-2.907 2.908 33.5 33.5c.833.836.83 2.178-.007 3.015-.83.828-2.176.832-3.01 0h.004L10.41 5.924l-4.49 4.49 33.498 33.5c.834.835.83 2.18-.004 3.013-.832.832-2.177.834-3.01.004l-33.5-33.502-1.175 1.175L0 16.333l28.518 34.195c10.248 12.28 20.094 9.336 20.094 9.336.814-.108 1.56-.107 2.25-.04C54.46 63.83 62.61 72.88 73.068 84.275c-14.69 13.04-32.795 29.766-47.12 45.273-4.666 5.048-5.552 13.022-1.24 17.01 4.31 3.986 11.906 2.773 16.856-2.584 14.058-15.22 29-34.165 40.738-49.682 14.25 15.385 31.042 33.17 46.168 48.298 5.983 5.983 14.096 7.777 17.992 3.88 3.9-3.9 1.758-12.357-3.884-18-15.715-15.715-34.307-33.232-50.092-47.827l.378-.512c35.213-38.126 44.158-47.808 65.447-70.854z"/><text style="line-height:125%" x="182.583" y="100.914" font-size="43.488" font-family="sans-serif" letter-spacing="0" word-spacing="0" transform="translate(-1.931 -7.353)"><tspan x="182.583" y="100.914" style="line-height:125%;-inkscape-font-specification:'Lora, Bold';text-align:start" font-weight="bold" font-size="86.975" font-family="Lora">Meal Planner</tspan></text><path d="M184.07 108.47H728.75v8.7H184.07z"/></g></svg>