<svg xmlns="http://www.w3.org/2000/svg" width="781.546" height="158.777" viewBox="0 0 732.69931 148.85297"><path d="M158.247 9.275c14.268-15.448-17.602-11.13-49.53 23.438-13.01 14.079-12.046 29.52-18.632 36.655-1.548 1.33-3.248 2.797-5.08 4.383a3114.327 3114.327 0 0 0-25.203-22.896 9.735 9.735 0 0 1 .04-2.261s2.94-9.842-9.332-20.09L16.326 0l-2.907 2.906 33.485 33.486a2.126 2.126 0 0 1-.005 3.014 2.127 2.127 0 0 1-3.008 0l.003.002L10.406 5.92l-4.488 4.488 33.484 33.485c.833.837.83 2.18-.004 3.013a2.127 2.127 0 0 1-3.008.004L2.903 13.422l-1.174 1.175L0 16.326l28.506 34.181C38.75 62.78 48.592 59.84 48.592 59.84a9.84 9.84 0 0 1 2.248-.041A3108.178 3108.178 0 0 0 73.039 84.24c-14.681 13.034-32.78 29.753-47.1 45.254-4.664 5.047-5.549 13.018-1.24 17.003 4.31 3.985 11.902 2.773 16.85-2.582C55.602 128.7 70.535 109.765 82.27 94.255c14.245 15.379 31.03 33.157 46.149 48.277 5.98 5.981 14.09 7.774 17.984 3.88 3.899-3.9 1.757-12.353-3.882-17.993C126.813 112.71 108.228 95.2 92.45 80.611l.378-.512c35.198-38.11 44.139-47.788 65.42-70.824z"/><text style="line-height:125%" x="182.583" y="100.914" font-weight="400" font-size="43.488" font-family="sans-serif" letter-spacing="0" word-spacing="0" transform="translate(-1.931 -7.353)"><tspan x="182.583" y="100.914" style="line-height:125%;-inkscape-font-specification:'Lora, Bold';text-align:start" font-weight="700" font-size="86.975" font-family="Lora">Meal Planner</tspan></text><path d="M184.069 108.471h544.683v8.698H184.069z"/></svg>