<svg version="1.1" width="330" height="300" xmlns="http://www.w3.org/2000/svg">
  <g fill="#000000">
    <path d="M319.461,18.783c28.894-31.284-35.646-22.541-100.306,47.466c-26.347,28.511-24.394,59.782-37.731,74.23
	c-3.135,2.695-6.579,5.665-10.287,8.877c-23.787-21.845-42.747-38.919-51.04-46.367c-0.138-1.404-0.14-2.919,0.082-4.58
	c0,0,5.951-19.931-18.901-40.683L32.051,0l-5.886,5.886l67.812,67.812c1.688,1.695,1.684,4.412-0.012,6.105
	c-1.678,1.677-4.404,1.685-6.09,0l0.005,0.003L20.062,11.989l-9.089,9.089l67.81,67.812c1.688,1.694,1.68,4.415-0.007,6.101
	c-1.685,1.685-4.407,1.69-6.093,0.008L4.868,27.182L2.49,29.561l-3.501,3.501l57.729,69.222
	c20.745,24.855,40.676,18.898,40.676,18.898c1.648-0.218,3.156-0.217,4.553-0.083c7.286,8.112,23.785,26.434,44.956,49.501
	c-29.732,26.395-66.385,60.254-95.383,91.645c-9.446,10.221-11.238,26.363-2.512,34.434c8.729,8.07,24.104,5.615,34.123-5.23
	c28.459-30.811,58.702-69.16,82.466-100.57c28.849,31.144,62.839,67.147,93.458,97.768c12.112,12.113,28.534,15.744,36.42,7.857
	c7.896-7.899,3.559-25.017-7.861-36.438c-31.812-31.812-69.449-67.272-101.402-96.817c0.255-0.345,0.515-0.695,0.766-1.037
	C258.259,85.034,276.366,65.435,319.461,18.783z"></path>
  </g>
</svg>
