<?xml version="1.0" encoding="UTF-8" standalone="no"?>
<!-- Created with Inkscape (http://www.inkscape.org/) -->

<svg
   xmlns:dc="http://purl.org/dc/elements/1.1/"
   xmlns:cc="http://creativecommons.org/ns#"
   xmlns:rdf="http://www.w3.org/1999/02/22-rdf-syntax-ns#"
   xmlns:svg="http://www.w3.org/2000/svg"
   xmlns="http://www.w3.org/2000/svg"
   xmlns:sodipodi="http://sodipodi.sourceforge.net/DTD/sodipodi-0.dtd"
   xmlns:inkscape="http://www.inkscape.org/namespaces/inkscape"
   width="206.78403mm"
   height="42.009617mm"
   viewBox="0 0 732.69931 148.85297"
   id="svg2"
   version="1.1"
   inkscape:version="0.91 r13725"
   sodipodi:docname="logo.svg">
  <defs
     id="defs4">
    <inkscape:perspective
       sodipodi:type="inkscape:persp3d"
       inkscape:vp_x="0 : 526.1811 : 1"
       inkscape:vp_y="0 : 1000 : 0"
       inkscape:vp_z="744.09451 : 526.1811 : 1"
       inkscape:persp3d-origin="372.04725 : 350.7874 : 1"
       id="perspective3400" />
  </defs>
  <sodipodi:namedview
     id="base"
     pagecolor="#ffffff"
     bordercolor="#666666"
     borderopacity="1.0"
     inkscape:pageopacity="0.0"
     inkscape:pageshadow="2"
     inkscape:zoom="1"
     inkscape:cx="383.06867"
     inkscape:cy="-96.156521"
     inkscape:document-units="px"
     inkscape:current-layer="layer1"
     showgrid="false"
     inkscape:window-width="1440"
     inkscape:window-height="851"
     inkscape:window-x="0"
     inkscape:window-y="0"
     inkscape:window-maximized="1"
     fit-margin-top="0"
     fit-margin-left="0"
     fit-margin-right="0"
     fit-margin-bottom="0">
    <inkscape:grid
       type="xygrid"
       id="grid3441"
       originx="-1.9313287"
       originy="-896.15654" />
  </sodipodi:namedview>
  <metadata
     id="metadata7">
    <rdf:RDF>
      <cc:Work
         rdf:about="">
        <dc:format>image/svg+xml</dc:format>
        <dc:type
           rdf:resource="http://purl.org/dc/dcmitype/StillImage" />
        <dc:title></dc:title>
      </cc:Work>
    </rdf:RDF>
  </metadata>
  <g
     inkscape:label="Layer 1"
     inkscape:groupmode="layer"
     id="layer1"
     transform="translate(-1.9313286,-7.3527143)">
    <g
       id="g3388"
       style="fill:#000000"
       transform="matrix(0.49379377,0,0,0.49379377,2.4305541,7.3527143)">
      <path
         id="path3390"
         d="m 319.461,18.783 c 28.894,-31.284 -35.646,-22.541 -100.306,47.466 -26.347,28.511 -24.394,59.782 -37.731,74.23 -3.135,2.695 -6.579,5.665 -10.287,8.877 -23.787,-21.845 -42.747,-38.919 -51.04,-46.367 -0.138,-1.404 -0.14,-2.919 0.082,-4.58 0,0 5.951,-19.931 -18.901,-40.683 L 32.051,0 26.165,5.886 93.977,73.698 c 1.688,1.695 1.684,4.412 -0.012,6.105 -1.678,1.677 -4.404,1.685 -6.09,0 l 0.005,0.003 -67.818,-67.817 -9.089,9.089 67.81,67.812 c 1.688,1.694 1.68,4.415 -0.007,6.101 -1.685,1.685 -4.407,1.69 -6.093,0.008 L 4.868,27.182 2.49,29.561 l -3.501,3.501 57.729,69.222 c 20.745,24.855 40.676,18.898 40.676,18.898 1.648,-0.218 3.156,-0.217 4.553,-0.083 7.286,8.112 23.785,26.434 44.956,49.501 -29.732,26.395 -66.385,60.254 -95.383,91.645 -9.446,10.221 -11.238,26.363 -2.512,34.434 8.729,8.07 24.104,5.615 34.123,-5.23 28.459,-30.811 58.702,-69.16 82.466,-100.57 28.849,31.144 62.839,67.147 93.458,97.768 12.112,12.113 28.534,15.744 36.42,7.857 7.896,-7.899 3.559,-25.017 -7.861,-36.438 -31.812,-31.812 -69.449,-67.272 -101.402,-96.817 0.255,-0.345 0.515,-0.695 0.766,-1.037 71.281,-77.178 89.388,-96.777 132.483,-143.429 z"
         inkscape:connector-curvature="0"
         style="fill:#ffffff" />
    </g>
    <text
       xml:space="preserve"
       style="font-style:normal;font-weight:normal;font-size:43.48770142px;line-height:125%;font-family:sans-serif;letter-spacing:0px;word-spacing:0px;fill:#ffffff;fill-opacity:1;stroke:none;stroke-width:1px;stroke-linecap:butt;stroke-linejoin:miter;stroke-opacity:1;"
       x="182.58313"
       y="100.91354"
       id="text3416"
       sodipodi:linespacing="125%"><tspan
         sodipodi:role="line"
         id="tspan3418"
         x="182.58313"
         y="100.91354"
         style="font-style:normal;font-variant:normal;font-weight:bold;font-stretch:normal;font-size:86.97540283px;line-height:125%;font-family:Lora;-inkscape-font-specification:'Lora, Bold';text-align:start;writing-mode:lr-tb;text-anchor:start;fill:#ffffff;">Meal Planner</tspan></text>
    <rect
       id="rect3420"
       width="544.68341"
       height="8.6975403"
       x="186"
       y="115.82361"
       style="fill:#ffffff" />
  </g>
</svg>
