<?xml version="1.0" encoding="UTF-8" standalone="no"?>
<!-- Created with Inkscape (http://www.inkscape.org/) -->

<svg
   xmlns:dc="http://purl.org/dc/elements/1.1/"
   xmlns:cc="http://creativecommons.org/ns#"
   xmlns:rdf="http://www.w3.org/1999/02/22-rdf-syntax-ns#"
   xmlns:svg="http://www.w3.org/2000/svg"
   xmlns="http://www.w3.org/2000/svg"
   xmlns:sodipodi="http://sodipodi.sourceforge.net/DTD/sodipodi-0.dtd"
   xmlns:inkscape="http://www.inkscape.org/namespaces/inkscape"
   width="206.78403mm"
   height="42.009617mm"
   viewBox="0 0 732.69931 148.85297"
   id="svg2"
   version="1.1"
   inkscape:version="0.91 r13725"
   sodipodi:docname="logo.svg">
  <defs
     id="defs4">
    <inkscape:perspective
       sodipodi:type="inkscape:persp3d"
       inkscape:vp_x="0 : 526.1811 : 1"
       inkscape:vp_y="0 : 1000 : 0"
       inkscape:vp_z="744.09451 : 526.1811 : 1"
       inkscape:persp3d-origin="372.04725 : 350.7874 : 1"
       id="perspective3400" />
  </defs>
  <sodipodi:namedview
     id="base"
     pagecolor="#ffffff"
     bordercolor="#666666"
     borderopacity="1.0"
     inkscape:pageopacity="0.0"
     inkscape:pageshadow="2"
     inkscape:zoom="1.4142136"
     inkscape:cx="436.48149"
     inkscape:cy="45.982685"
     inkscape:document-units="px"
     inkscape:current-layer="layer1"
     showgrid="false"
     inkscape:window-width="1440"
     inkscape:window-height="851"
     inkscape:window-x="0"
     inkscape:window-y="0"
     inkscape:window-maximized="1"
     fit-margin-top="0"
     fit-margin-left="0"
     fit-margin-right="0"
     fit-margin-bottom="0">
    <inkscape:grid
       type="xygrid"
       id="grid3441"
       originx="-1.9313287"
       originy="-896.15654" />
  </sodipodi:namedview>
  <metadata
     id="metadata7">
    <rdf:RDF>
      <cc:Work
         rdf:about="">
        <dc:format>image/svg+xml</dc:format>
        <dc:type
           rdf:resource="http://purl.org/dc/dcmitype/StillImage" />
        <dc:title></dc:title>
      </cc:Work>
    </rdf:RDF>
  </metadata>
  <g
     inkscape:label="Layer 1"
     inkscape:groupmode="layer"
     id="layer1"
     transform="translate(-1.9313286,-7.3527143)">
    <g
       id="g3388"
       style="fill:#ffffff"
       transform="matrix(0.49379377,0,0,0.49379377,2.4305541,7.3527143)">
      <path
         id="path3390"
         d="m 319.461,18.783 c 28.894,-31.284 -35.646,-22.541 -100.306,47.466 -26.347,28.511 -24.394,59.782 -37.731,74.23 -3.135,2.695 -6.579,5.665 -10.287,8.877 -23.787,-21.845 -42.747,-38.919 -51.04,-46.367 -0.138,-1.404 -0.14,-2.919 0.082,-4.58 0,0 5.951,-19.931 -18.901,-40.683 L 32.051,0 26.165,5.886 93.977,73.698 c 1.688,1.695 1.684,4.412 -0.012,6.105 -1.678,1.677 -4.404,1.685 -6.09,0 l 0.005,0.003 -67.818,-67.817 -9.089,9.089 67.81,67.812 c 1.688,1.694 1.68,4.415 -0.007,6.101 -1.685,1.685 -4.407,1.69 -6.093,0.008 L 4.868,27.182 2.49,29.561 l -3.501,3.501 57.729,69.222 c 20.745,24.855 40.676,18.898 40.676,18.898 1.648,-0.218 3.156,-0.217 4.553,-0.083 7.286,8.112 23.785,26.434 44.956,49.501 -29.732,26.395 -66.385,60.254 -95.383,91.645 -9.446,10.221 -11.238,26.363 -2.512,34.434 8.729,8.07 24.104,5.615 34.123,-5.23 28.459,-30.811 58.702,-69.16 82.466,-100.57 28.849,31.144 62.839,67.147 93.458,97.768 12.112,12.113 28.534,15.744 36.42,7.857 7.896,-7.899 3.559,-25.017 -7.861,-36.438 -31.812,-31.812 -69.449,-67.272 -101.402,-96.817 0.255,-0.345 0.515,-0.695 0.766,-1.037 71.281,-77.178 89.388,-96.777 132.483,-143.429 z"
         inkscape:connector-curvature="0"
         style="fill:#ffffff" />
    </g>
    <g
       style="font-style:normal;font-weight:normal;font-size:43.48770142px;line-height:125%;font-family:sans-serif;letter-spacing:0px;word-spacing:0px;fill:#ffffff;fill-opacity:1;stroke:none;stroke-width:1px;stroke-linecap:butt;stroke-linejoin:miter;stroke-opacity:1"
       id="text3416"
       transform="translate(0,3e-6)">
      <path
         d="m 243.95005,54.113303 -17.79428,47.649607 -8.11148,0 -11.67882,-28.623738 q -0.50962,-1.189117 -1.31653,-3.227603 -0.76443,-2.080954 -1.6138,-4.67153 -0.84937,-2.590576 -1.69874,-5.563368 -0.8069,-3.015261 -1.48639,-6.157927 l -0.0849,0 q 0.12741,4.883873 0.21234,9.173187 0.0849,4.289314 0.0425,8.238881 l -0.1274,15.71333 q 0,1.189117 -0.0425,2.335765 0,1.146648 -0.0849,2.20836 -0.0425,1.019243 -0.1274,1.868612 -0.0425,0.849369 -0.12741,1.401459 l 6.58261,-0.254811 0,6.710013 -19.83277,0 0,-5.733238 q 1.44393,-0.08494 2.59058,-0.297279 1.14665,-0.212343 1.91108,-0.934306 0.8069,-0.721964 1.23158,-2.20836 0.42469,-1.486396 0.46716,-4.119441 l 0.50962,-33.33774 q 0,-1.189116 0.0425,-2.335765 0.0425,-1.146648 0.0849,-2.165891 0.0425,-1.061712 0.0849,-1.911081 0.0849,-0.849369 0.16987,-1.401459 l -6.58261,0.254811 0,-6.710017 19.23822,0 13.16522,33.677488 q 0.59456,1.528864 1.27405,3.439945 0.72196,1.911081 1.40146,3.822161 0.6795,1.911081 1.23159,3.652288 0.59455,1.698738 0.9343,2.802918 l 0.0849,0 q 1.10418,-3.015261 2.03848,-5.818179 0.97678,-2.845387 2.08096,-5.648305 l 13.42003,-35.928316 20.08758,0 0,5.733242 q -1.48639,0.08494 -2.67551,0.297279 -1.14665,0.212343 -1.99602,0.934307 -0.8069,0.721963 -1.23158,2.208359 -0.38222,1.486396 -0.29728,4.119441 l 1.31652,33.33774 q 0.0425,1.189117 0,2.335765 0,1.146648 -0.0425,2.20836 -0.0425,1.019243 -0.1274,1.868612 -0.0849,0.849369 -0.16988,1.401459 l 6.54014,-0.254811 0,6.710013 -24.16455,0 0,-5.733238 q 1.44393,-0.08494 2.63305,-0.297279 1.18911,-0.212343 1.99601,-0.934306 0.84937,-0.721964 1.23159,-2.20836 0.42468,-1.486396 0.33975,-4.119441 l -0.72197,-18.431311 q -0.0425,-0.764432 -0.1274,-2.46317 -0.0849,-1.741207 -0.21234,-3.86463 -0.0849,-2.123423 -0.21235,-4.41672 -0.0849,-2.335765 -0.16987,-4.331782 l -0.0849,0 z"
         style="font-style:normal;font-variant:normal;font-weight:bold;font-stretch:normal;font-size:86.97540283px;line-height:125%;font-family:Lora;-inkscape-font-specification:'Lora, Bold';text-align:start;writing-mode:lr-tb;text-anchor:start;fill:#ffffff"
         id="path3399"
         inkscape:connector-curvature="0" />
      <path
         d="m 289.98586,62.139841 q -1.91108,0 -3.43994,0.721964 -1.4864,0.721964 -2.59058,1.996018 -1.10418,1.274053 -1.82614,3.100197 -0.6795,1.783675 -0.97678,3.949567 l 16.01061,0 q -0.0849,-2.675513 -0.63702,-4.544125 -0.55209,-1.868613 -1.52887,-3.015261 -0.9343,-1.189117 -2.20836,-1.698738 -1.27405,-0.509622 -2.80292,-0.509622 z m 19.19575,15.373582 -28.58128,0.509622 q 0,3.56735 0.63703,6.625079 0.6795,3.015261 2.12342,5.223621 1.44393,2.165891 3.7797,3.439945 2.33576,1.231585 5.73324,1.231585 1.31652,0 2.93032,-0.339748 1.6138,-0.339747 3.27007,-1.10418 1.69874,-0.764432 3.39748,-1.996017 1.69874,-1.274054 3.18513,-3.100198 l 3.9071,3.694756 q -2.33576,3.355008 -4.96881,5.435963 -2.63304,2.080954 -5.30855,3.227599 -2.63305,1.14665 -5.22362,1.52887 -2.54811,0.42468 -4.75647,0.42468 -4.79894,0 -8.7485,-1.6138 -3.94957,-1.6138 -6.79496,-4.629061 -2.84538,-3.01526 -4.41672,-7.262106 -1.52886,-4.246846 -1.52886,-9.555403 0,-4.586594 1.52886,-8.748503 1.57134,-4.204377 4.41672,-7.43198 2.84539,-3.227603 6.83742,-5.138683 4.03451,-1.911081 8.96085,-1.911081 2.4207,0 4.79893,0.424685 2.42071,0.424684 4.5866,1.443927 2.20836,0.976775 4.07697,2.590576 1.91108,1.613802 3.27007,3.992035 1.35899,2.378234 2.12342,5.605837 0.80691,3.227603 0.76444,7.43198 z"
         style="font-style:normal;font-variant:normal;font-weight:bold;font-stretch:normal;font-size:86.97540283px;line-height:125%;font-family:Lora;-inkscape-font-specification:'Lora, Bold';text-align:start;writing-mode:lr-tb;text-anchor:start;fill:#ffffff"
         id="path3401"
         inkscape:connector-curvature="0" />
      <path
         d="m 338.82459,80.9109 q -2.46317,0.254811 -4.62906,0.891837 -2.16589,0.637027 -3.77969,1.698739 -1.57134,1.019243 -2.50564,2.46317 -0.89184,1.443928 -0.89184,3.31254 0.0425,1.231585 0.46715,2.080955 0.42469,0.849369 1.06171,1.401459 0.6795,0.55209 1.52887,0.8069 0.89184,0.254811 1.82614,0.254811 2.03849,0 3.77969,-0.849369 1.74121,-0.849369 3.1002,-2.335765 l 0.0425,-9.725277 z M 316.52865,67.490867 q 0,-2.548108 1.40146,-4.67153 1.44393,-2.123423 3.9071,-3.609819 2.50564,-1.528865 5.86064,-2.335766 3.35501,-0.849369 7.17717,-0.849369 3.82216,0 6.79496,0.976775 3.01526,0.976774 5.05374,3.01526 2.08096,2.038486 3.14267,5.181152 1.10418,3.142666 1.10418,7.474449 0,2.20836 -0.0425,3.907098 0,1.65627 0,3.227603 0,1.528864 -0.0425,3.227603 0,1.698738 0,3.907098 0,0.637027 -0.0425,1.528864 0,0.891838 -0.0425,1.911081 0,1.019243 -0.0849,2.123423 -0.0425,1.061711 -0.12741,2.038486 l 5.60584,-0.254811 0,6.625076 -16.43529,0 q -0.16988,-1.231582 -0.25481,-2.038482 -0.0425,-0.849369 -0.0849,-1.953549 l -0.0849,0 q -2.97279,2.972792 -6.20039,4.161911 -3.22761,1.23158 -6.66755,1.23158 -2.80292,0 -5.01128,-0.89183 -2.20836,-0.84937 -3.73722,-2.420707 -1.4864,-1.571333 -2.2933,-3.652287 -0.8069,-2.123423 -0.8069,-4.629062 0,-2.76045 0.97677,-4.96881 0.97678,-2.20836 2.67552,-3.949567 1.7412,-1.741206 4.07697,-3.01526 2.33576,-1.274054 5.01128,-2.123423 2.71798,-0.849369 5.6483,-1.316522 2.93032,-0.467153 5.86065,-0.594559 l 0,-4.544125 q 0,-1.741207 -0.29728,-3.185134 -0.29728,-1.486396 -1.01924,-2.548108 -0.72197,-1.061711 -1.91108,-1.656269 -1.18912,-0.594559 -2.9728,-0.55209 -1.78367,0.08494 -3.31254,0.721963 -1.52886,0.637027 -2.63304,1.783676 0.67949,0.721963 0.84937,1.656269 0.21234,0.934307 0.21234,1.571333 0,0.934307 -0.33975,1.911081 -0.33974,0.934306 -1.06171,1.741207 -0.72196,0.764432 -1.82614,1.274054 -1.10418,0.509621 -2.63305,0.509621 -1.27405,-0.04247 -2.29329,-0.509621 -1.01925,-0.509622 -1.69874,-1.274054 -0.6795,-0.806901 -1.06171,-1.868612 -0.33975,-1.061712 -0.33975,-2.293297 z"
         style="font-style:normal;font-variant:normal;font-weight:bold;font-stretch:normal;font-size:86.97540283px;line-height:125%;font-family:Lora;-inkscape-font-specification:'Lora, Bold';text-align:start;writing-mode:lr-tb;text-anchor:start;fill:#ffffff"
         id="path3403"
         inkscape:connector-curvature="0" />
      <path
         d="m 377.38595,86.941421 q 0,0.637027 -0.0425,1.528864 0,0.891838 -0.0425,1.911081 -0.0425,1.019243 -0.1274,2.123423 -0.0425,1.061711 -0.12741,2.038486 l 5.64831,-0.254811 0,6.625076 -22.80557,0 0,-5.648301 q 1.82615,0 2.84539,-0.55209 1.06171,-0.55209 1.57133,-1.571333 0.50963,-1.019243 0.63703,-2.420702 0.12741,-1.443928 0.12741,-3.185135 l 0,-35.758442 q 0,-1.571333 0.0425,-3.609819 0.0849,-2.038486 0.29728,-3.992035 l -6.11545,0.254811 0,-6.582611 q 3.01526,0 5.30855,-0.254811 2.33577,-0.254811 3.94957,-0.637027 1.65627,-0.382216 2.63304,-0.8069 1.01925,-0.467153 1.4864,-0.891838 l 4.714,0 0,51.684114 z"
         style="font-style:normal;font-variant:normal;font-weight:bold;font-stretch:normal;font-size:86.97540283px;line-height:125%;font-family:Lora;-inkscape-font-specification:'Lora, Bold';text-align:start;writing-mode:lr-tb;text-anchor:start;fill:#ffffff"
         id="path3405"
         inkscape:connector-curvature="0" />
      <path
         d="m 437.26647,78.872414 q -1.01924,0.04247 -1.86861,0.08494 -0.8069,0 -1.57133,0 -0.72197,0 -1.44393,0 -0.6795,0 -1.44393,-0.04247 l 0,7.686791 q 0,2.378234 -0.0849,4.586594 -0.0849,2.165891 -0.25482,3.270071 l 7.38952,-0.254811 0,6.710011 -25.82083,0 0,-5.733236 q 1.44393,-0.08494 2.59058,-0.254811 1.18912,-0.212342 1.95355,-0.934306 0.8069,-0.764432 1.23158,-2.250828 0.42469,-1.486396 0.42469,-4.119441 l 0,-33.33774 q 0,-1.189116 0,-2.335765 0.0425,-1.146648 0.0849,-2.165891 0.0425,-1.061712 0.0849,-1.911081 0.0849,-0.849369 0.16988,-1.401459 l -6.54015,0.254811 0,-6.710017 24.75911,-0.169873 q 5.64831,-0.04247 10.2349,1.061711 4.62907,1.10418 7.89914,3.439945 3.27007,2.293297 5.05374,5.903116 1.78368,3.609819 1.78368,8.663565 0.0425,3.652288 -1.44393,7.134701 -1.4864,3.439945 -4.54412,6.242864 -3.01526,2.802918 -7.64433,4.586593 -4.62906,1.783675 -10.99933,1.996018 z m -2.4207,-6.200395 q 3.56735,0 6.15793,-0.891838 2.59057,-0.934306 4.24684,-2.717981 1.65627,-1.783675 2.4207,-4.374251 0.80691,-2.590576 0.80691,-5.903116 0,-2.887855 -0.55209,-4.96881 -0.55209,-2.080954 -1.4864,-3.482413 -0.93431,-1.443928 -2.16589,-2.293297 -1.18912,-0.891838 -2.50564,-1.316522 -1.27405,-0.467153 -2.59058,-0.594559 -1.27405,-0.169873 -2.37823,-0.169873 -1.40146,0 -2.50564,0.212342 -1.06171,0.212342 -1.82614,0.934306 -0.72197,0.721964 -1.14665,2.080954 -0.38222,1.358991 -0.38222,3.652288 l 0,19.577959 q 0.93431,0.08494 1.91108,0.169874 0.97678,0.08494 1.99602,0.08494 z"
         style="font-style:normal;font-variant:normal;font-weight:bold;font-stretch:normal;font-size:86.97540283px;line-height:125%;font-family:Lora;-inkscape-font-specification:'Lora, Bold';text-align:start;writing-mode:lr-tb;text-anchor:start;fill:#ffffff"
         id="path3407"
         inkscape:connector-curvature="0" />
      <path
         d="m 482.53787,86.941421 q 0,0.637027 -0.0425,1.528864 0,0.891838 -0.0425,1.911081 -0.0425,1.019243 -0.12741,2.123423 -0.0425,1.061711 -0.1274,2.038486 l 5.6483,-0.254811 0,6.625076 -22.80556,0 0,-5.648301 q 1.82614,0 2.84539,-0.55209 1.06171,-0.55209 1.57133,-1.571333 0.50962,-1.019243 0.63703,-2.420702 0.1274,-1.443928 0.1274,-3.185135 l 0,-35.758442 q 0,-1.571333 0.0425,-3.609819 0.0849,-2.038486 0.29728,-3.992035 l -6.11546,0.254811 0,-6.582611 q 3.01526,0 5.30856,-0.254811 2.33576,-0.254811 3.94957,-0.637027 1.65627,-0.382216 2.63304,-0.8069 1.01924,-0.467153 1.4864,-0.891838 l 4.714,0 0,51.684114 z"
         style="font-style:normal;font-variant:normal;font-weight:bold;font-stretch:normal;font-size:86.97540283px;line-height:125%;font-family:Lora;-inkscape-font-specification:'Lora, Bold';text-align:start;writing-mode:lr-tb;text-anchor:start;fill:#ffffff"
         id="path3409"
         inkscape:connector-curvature="0" />
      <path
         d="m 516.85238,80.9109 q -2.46317,0.254811 -4.62907,0.891837 -2.16589,0.637027 -3.77969,1.698739 -1.57133,1.019243 -2.50564,2.46317 -0.89184,1.443928 -0.89184,3.31254 0.0425,1.231585 0.46716,2.080955 0.42468,0.849369 1.06171,1.401459 0.67949,0.55209 1.52886,0.8069 0.89184,0.254811 1.82615,0.254811 2.03848,0 3.77969,-0.849369 1.74121,-0.849369 3.1002,-2.335765 l 0.0425,-9.725277 z M 494.55644,67.490867 q 0,-2.548108 1.40145,-4.67153 1.44393,-2.123423 3.9071,-3.609819 2.50564,-1.528865 5.86065,-2.335766 3.35501,-0.849369 7.17717,-0.849369 3.82216,0 6.79495,0.976775 3.01526,0.976774 5.05375,3.01526 2.08095,2.038486 3.14267,5.181152 1.10418,3.142666 1.10418,7.474449 0,2.20836 -0.0425,3.907098 0,1.65627 0,3.227603 0,1.528864 -0.0425,3.227603 0,1.698738 0,3.907098 0,0.637027 -0.0425,1.528864 0,0.891838 -0.0425,1.911081 0,1.019243 -0.0849,2.123423 -0.0425,1.061711 -0.1274,2.038486 l 5.60584,-0.254811 0,6.625076 -16.4353,0 q -0.16987,-1.231582 -0.25481,-2.038482 -0.0425,-0.849369 -0.0849,-1.953549 l -0.0849,0 q -2.97279,2.972792 -6.2004,4.161911 -3.2276,1.23158 -6.66755,1.23158 -2.80291,0 -5.01127,-0.89183 -2.20836,-0.84937 -3.73723,-2.420707 -1.48639,-1.571333 -2.29329,-3.652287 -0.8069,-2.123423 -0.8069,-4.629062 0,-2.76045 0.97677,-4.96881 0.97677,-2.20836 2.67551,-3.949567 1.74121,-1.741206 4.07697,-3.01526 2.33577,-1.274054 5.01128,-2.123423 2.71798,-0.849369 5.64831,-1.316522 2.93032,-0.467153 5.86064,-0.594559 l 0,-4.544125 q 0,-1.741207 -0.29727,-3.185134 -0.29728,-1.486396 -1.01925,-2.548108 -0.72196,-1.061711 -1.91108,-1.656269 -1.18911,-0.594559 -2.97279,-0.55209 -1.78368,0.08494 -3.31254,0.721963 -1.52886,0.637027 -2.63304,1.783676 0.67949,0.721963 0.84936,1.656269 0.21235,0.934307 0.21235,1.571333 0,0.934307 -0.33975,1.911081 -0.33975,0.934306 -1.06171,1.741207 -0.72197,0.764432 -1.82615,1.274054 -1.10418,0.509621 -2.63304,0.509621 -1.27405,-0.04247 -2.2933,-0.509621 -1.01924,-0.509622 -1.69874,-1.274054 -0.67949,-0.806901 -1.06171,-1.868612 -0.33974,-1.061712 -0.33974,-2.293297 z"
         style="font-style:normal;font-variant:normal;font-weight:bold;font-stretch:normal;font-size:86.97540283px;line-height:125%;font-family:Lora;-inkscape-font-specification:'Lora, Bold';text-align:start;writing-mode:lr-tb;text-anchor:start;fill:#ffffff"
         id="path3411"
         inkscape:connector-curvature="0" />
      <path
         d="m 584.1224,86.941421 q 0,0.637027 -0.0425,1.528864 0,0.891838 -0.0425,1.911081 -0.0425,1.019243 -0.1274,2.123423 -0.0425,1.061711 -0.12741,2.038486 l 5.64831,-0.254811 0,6.625076 -22.80557,0 0,-5.648301 q 1.82615,0 2.84539,-0.55209 1.06171,-0.55209 1.57133,-1.571333 0.50962,-1.019243 0.63703,-2.420702 0.12741,-1.443928 0.12741,-3.185135 l -0.0425,-12.40079 q -0.0425,-5.733241 -1.74121,-8.408754 -1.69874,-2.675513 -5.30856,-2.675513 -2.25083,0 -4.37425,0.934306 -2.08095,0.934306 -3.56735,2.250828 l 0,19.705365 q 0,0.637027 -0.0425,1.528864 0,0.891838 -0.0425,1.911081 -0.0425,1.019243 -0.1274,2.123423 -0.0425,1.061711 -0.12741,2.038486 l 5.64831,-0.254811 0,6.625076 -22.80556,0 0,-5.648301 q 1.82614,0 2.84538,-0.55209 1.06171,-0.55209 1.57134,-1.571333 0.50962,-1.019243 0.63702,-2.420702 0.12741,-1.443928 0.12741,-3.185135 l 0,-14.651618 q 0,-1.571333 0.0425,-3.482413 0.0849,-1.95355 0.29728,-3.907099 l -6.11546,0.254811 0,-6.582611 q 3.01526,0 5.30855,-0.254811 2.33577,-0.25481 3.94957,-0.637027 1.65627,-0.382216 2.63305,-0.8069 1.01924,-0.467153 1.48639,-0.891838 l 4.28932,0 0.38221,4.289314 0.12741,0 q 1.27405,-0.976774 2.88785,-1.868612 1.65627,-0.891837 3.35501,-1.528864 1.74121,-0.679496 3.35501,-1.061712 1.65627,-0.382216 2.97279,-0.382216 3.99204,0 6.75249,1.146649 2.80291,1.104179 4.54412,3.439945 1.78368,2.335765 2.59058,5.988052 0.8069,3.652288 0.8069,8.663566 l 0,11.678826 z"
         style="font-style:normal;font-variant:normal;font-weight:bold;font-stretch:normal;font-size:86.97540283px;line-height:125%;font-family:Lora;-inkscape-font-specification:'Lora, Bold';text-align:start;writing-mode:lr-tb;text-anchor:start;fill:#ffffff"
         id="path3413"
         inkscape:connector-curvature="0" />
      <path
         d="m 639.50127,86.941421 q 0,0.637027 -0.0425,1.528864 0,0.891838 -0.0425,1.911081 -0.0425,1.019243 -0.12741,2.123423 -0.0425,1.061711 -0.1274,2.038486 l 5.6483,-0.254811 0,6.625076 -22.80556,0 0,-5.648301 q 1.82614,0 2.84539,-0.55209 1.06171,-0.55209 1.57133,-1.571333 0.50962,-1.019243 0.63703,-2.420702 0.1274,-1.443928 0.1274,-3.185135 l -0.0425,-12.40079 q -0.0425,-5.733241 -1.7412,-8.408754 -1.69874,-2.675513 -5.30856,-2.675513 -2.25083,0 -4.37425,0.934306 -2.08096,0.934306 -3.56735,2.250828 l 0,19.705365 q 0,0.637027 -0.0425,1.528864 0,0.891838 -0.0425,1.911081 -0.0425,1.019243 -0.12741,2.123423 -0.0425,1.061711 -0.1274,2.038486 l 5.6483,-0.254811 0,6.625076 -22.80556,0 0,-5.648301 q 1.82615,0 2.84539,-0.55209 1.06171,-0.55209 1.57133,-1.571333 0.50962,-1.019243 0.63703,-2.420702 0.1274,-1.443928 0.1274,-3.185135 l 0,-14.651618 q 0,-1.571333 0.0425,-3.482413 0.0849,-1.95355 0.29728,-3.907099 l -6.11546,0.254811 0,-6.582611 q 3.01526,0 5.30856,-0.254811 2.33577,-0.25481 3.94957,-0.637027 1.65627,-0.382216 2.63304,-0.8069 1.01924,-0.467153 1.4864,-0.891838 l 4.28931,0 0.38222,4.289314 0.1274,0 q 1.27406,-0.976774 2.88786,-1.868612 1.65627,-0.891837 3.35501,-1.528864 1.7412,-0.679496 3.35501,-1.061712 1.65627,-0.382216 2.97279,-0.382216 3.99203,0 6.75248,1.146649 2.80292,1.104179 4.54413,3.439945 1.78367,2.335765 2.59057,5.988052 0.8069,3.652288 0.8069,8.663566 l 0,11.678826 z"
         style="font-style:normal;font-variant:normal;font-weight:bold;font-stretch:normal;font-size:86.97540283px;line-height:125%;font-family:Lora;-inkscape-font-specification:'Lora, Bold';text-align:start;writing-mode:lr-tb;text-anchor:start;fill:#ffffff"
         id="path3415"
         inkscape:connector-curvature="0" />
      <path
         d="m 671.35262,62.139841 q -1.91108,0 -3.43994,0.721964 -1.4864,0.721964 -2.59058,1.996018 -1.10418,1.274053 -1.82614,3.100197 -0.6795,1.783675 -0.97678,3.949567 l 16.01061,0 q -0.0849,-2.675513 -0.63702,-4.544125 -0.55209,-1.868613 -1.52887,-3.015261 -0.9343,-1.189117 -2.20836,-1.698738 -1.27405,-0.509622 -2.80292,-0.509622 z m 19.19575,15.373582 -28.58128,0.509622 q 0,3.56735 0.63703,6.625079 0.6795,3.015261 2.12342,5.223621 1.44393,2.165891 3.7797,3.439945 2.33576,1.231585 5.73324,1.231585 1.31652,0 2.93032,-0.339748 1.6138,-0.339747 3.27007,-1.10418 1.69874,-0.764432 3.39748,-1.996017 1.69874,-1.274054 3.18513,-3.100198 l 3.9071,3.694756 q -2.33576,3.355008 -4.96881,5.435963 -2.63304,2.080954 -5.30855,3.227599 -2.63305,1.14665 -5.22362,1.52887 -2.54811,0.42468 -4.75647,0.42468 -4.79894,0 -8.7485,-1.6138 -3.94957,-1.6138 -6.79496,-4.629061 -2.84538,-3.01526 -4.41672,-7.262106 -1.52886,-4.246846 -1.52886,-9.555403 0,-4.586594 1.52886,-8.748503 1.57134,-4.204377 4.41672,-7.43198 2.84539,-3.227603 6.83742,-5.138683 4.03451,-1.911081 8.96085,-1.911081 2.4207,0 4.79893,0.424685 2.42071,0.424684 4.5866,1.443927 2.20836,0.976775 4.07697,2.590576 1.91108,1.613802 3.27007,3.992035 1.35899,2.378234 2.12342,5.605837 0.80691,3.227603 0.76444,7.43198 z"
         style="font-style:normal;font-variant:normal;font-weight:bold;font-stretch:normal;font-size:86.97540283px;line-height:125%;font-family:Lora;-inkscape-font-specification:'Lora, Bold';text-align:start;writing-mode:lr-tb;text-anchor:start;fill:#ffffff"
         id="path3417"
         inkscape:connector-curvature="0" />
      <path
         d="m 727.02876,56.024383 q 1.52886,0 2.88785,0.424685 1.40146,0.424684 2.4207,1.316522 1.06172,0.849369 1.65627,2.20836 0.63703,1.35899 0.63703,3.270071 0,1.019243 -0.33975,2.123423 -0.33974,1.061711 -1.06171,1.953549 -0.72196,0.891838 -1.91108,1.486396 -1.14665,0.55209 -2.80292,0.55209 -0.89183,0 -1.82614,-0.212342 -0.93431,-0.254811 -1.74121,-0.806901 -0.76443,-0.594558 -1.35899,-1.571333 -0.55209,-0.976774 -0.67949,-2.505639 -1.31653,0 -2.67552,0.891838 -1.31652,0.849369 -2.50564,2.165891 -1.14664,1.274054 -2.03848,2.76045 -0.89184,1.486396 -1.27406,2.675513 l 0,14.184465 q 0,0.637027 -0.0425,1.528864 0,0.891838 -0.0425,1.911081 -0.0425,1.019243 -0.12741,2.123423 -0.0425,1.061711 -0.1274,2.038486 l 5.6483,-0.254811 0,6.625076 -22.80556,0 0,-5.648301 q 1.82614,0 2.84539,-0.55209 1.06171,-0.55209 1.57133,-1.571333 0.50962,-1.019243 0.63703,-2.420702 0.1274,-1.443928 0.1274,-3.185135 l 0,-14.651618 q 0,-1.571333 0.0425,-3.482413 0.0849,-1.95355 0.29728,-3.907099 l -6.11546,0.254811 0,-6.582611 q 3.01526,0 5.30856,-0.254811 2.33576,-0.25481 3.94957,-0.637027 1.65627,-0.382216 2.63304,-0.8069 1.01924,-0.467153 1.4864,-0.891838 l 4.28931,0 0.38222,7.474449 0.1274,0 q 0.84937,-1.146649 2.03849,-2.548108 1.23158,-1.401459 2.80292,-2.590576 1.6138,-1.231585 3.52488,-2.038486 1.91108,-0.849369 4.16191,-0.849369 z"
         style="font-style:normal;font-variant:normal;font-weight:bold;font-stretch:normal;font-size:86.97540283px;line-height:125%;font-family:Lora;-inkscape-font-specification:'Lora, Bold';text-align:start;writing-mode:lr-tb;text-anchor:start;fill:#ffffff"
         id="path3419"
         inkscape:connector-curvature="0" />
    </g>
    <rect
       id="rect3420"
       width="544.68341"
       height="8.6975403"
       x="186"
       y="115.82361"
       style="fill:#ffffff" />
  </g>
</svg>
